# xmcd CD database file
#
# Track frame offsets:
#	150
#	15459
#	29042
#	40150
#	53282
#	66790
#	82473
#	95231
#	107765
#	120446
#
# Disc length: 1837 seconds
#
# Revision: 1
# Processed by: cddbd v1.5.2PL0 Copyright (c) Steve Scherf et al.
# Submitted via: CDex 2.21
#
DISCID=81072b0a
DTITLE=Tanya Tucker - Lovin' or Learnin'
DYEAR=1976
DGENRE=Country
TTITLE0=Pride Of Franklin County
TTITLE1=Depend On You
TTITLE2=Ain't That A Shame
TTITLE3=Leave Him Alone
TTITLE4=You've Got Me To Hold On To
TTITLE5=Makin' Love Don't Always Make Love grow
TTITLE6=After The Thrill Is Gone
TTITLE7=Don't Believe My Heart Can Stand another you
TTITLE8=Here We Are
TTITLE9=My Cowboy's Getting Old
EXTD=YEAR: 1976
EXTT0=
EXTT1=
EXTT2=
EXTT3=
EXTT4=
EXTT5=
EXTT6=
EXTT7=
EXTT8=
EXTT9=
PLAYORDER=
